<mxfile host="65bd71144e">
    <diagram id="Hw1dtfz3IVRbmeXq6_6r" name="Page-1">
        <mxGraphModel dx="476" dy="5165" grid="1" gridSize="10" guides="1" tooltips="1" connect="1" arrows="1" fold="1" page="1" pageScale="1" pageWidth="850" pageHeight="1100" math="0" shadow="0">
            <root>
                <mxCell id="0"/>
                <mxCell id="1" parent="0"/>
                <object label="ImdbItem" id="2">
                    <mxCell style="swimlane;fontStyle=1;childLayout=stackLayout;horizontal=1;startSize=40;fillColor=#f5f5f5;horizontalStack=0;resizeParent=1;resizeParentMax=0;resizeLast=0;collapsible=1;marginBottom=0;swimlaneFillColor=#ffffff;align=center;fontSize=14;strokeColor=#666666;fontColor=#0A0A0A;" vertex="1" parent="1">
                        <mxGeometry x="1560" y="-3708" width="220" height="132" as="geometry">
                            <mxRectangle x="690" y="-100" width="210" height="40" as="alternateBounds"/>
                        </mxGeometry>
                    </mxCell>
                </object>
                <mxCell id="3" value="id" style="text;strokeColor=none;fillColor=none;spacingLeft=4;spacingRight=4;overflow=hidden;rotatable=0;points=[[0,0.5],[1,0.5]];portConstraint=eastwest;fontSize=12;fontStyle=1;whiteSpace=wrap;shadow=0;comic=0;horizontal=1;align=left;fontColor=#000000;" vertex="1" parent="2">
                    <mxGeometry y="40" width="220" height="22" as="geometry"/>
                </mxCell>
                <mxCell id="4" value="title, imageUrl, year, avgRating, ratingCount, plotSummary" style="text;spacingLeft=4;spacingRight=4;overflow=hidden;rotatable=0;points=[[0,0.5],[1,0.5]];portConstraint=eastwest;fontSize=12;fontStyle=0;whiteSpace=wrap;shadow=0;comic=0;horizontal=1;align=left;fontColor=#000000;" vertex="1" parent="2">
                    <mxGeometry y="62" width="220" height="48" as="geometry"/>
                </mxCell>
                <mxCell id="5" value="type: tvSeries, movies" style="text;spacingLeft=4;spacingRight=4;overflow=hidden;rotatable=0;points=[[0,0.5],[1,0.5]];portConstraint=eastwest;fontSize=12;fontStyle=0;whiteSpace=wrap;shadow=0;comic=0;horizontal=1;align=left;fillColor=#fff2cc;strokeColor=#d6b656;fontColor=#000000;" vertex="1" parent="2">
                    <mxGeometry y="110" width="220" height="22" as="geometry"/>
                </mxCell>
                <object label="SyncroItem" id="6">
                    <mxCell style="swimlane;fontStyle=1;childLayout=stackLayout;horizontal=1;startSize=40;fillColor=#d5e8d4;horizontalStack=0;resizeParent=1;resizeParentMax=0;resizeLast=0;collapsible=1;marginBottom=0;swimlaneFillColor=#ffffff;align=center;fontSize=14;strokeColor=#82b366;fontColor=#0A0A0A;" vertex="1" parent="1">
                        <mxGeometry x="1820" y="-3708" width="220" height="198" as="geometry">
                            <mxRectangle x="690" y="-100" width="210" height="40" as="alternateBounds"/>
                        </mxGeometry>
                    </mxCell>
                </object>
                <mxCell id="7" value="id" style="text;strokeColor=none;fillColor=none;spacingLeft=4;spacingRight=4;overflow=hidden;rotatable=0;points=[[0,0.5],[1,0.5]];portConstraint=eastwest;fontSize=12;fontStyle=1;whiteSpace=wrap;shadow=0;comic=0;horizontal=1;align=left;fontColor=#000000;" vertex="1" parent="6">
                    <mxGeometry y="40" width="220" height="22" as="geometry"/>
                </mxCell>
                <mxCell id="8" value="title, imageUrl, year, avgRating, ratingCount, plotSummary" style="text;spacingLeft=4;spacingRight=4;overflow=hidden;rotatable=0;points=[[0,0.5],[1,0.5]];portConstraint=eastwest;fontSize=12;fontStyle=0;whiteSpace=wrap;shadow=0;comic=0;horizontal=1;align=left;fontColor=#000000;" vertex="1" parent="6">
                    <mxGeometry y="62" width="220" height="48" as="geometry"/>
                </mxCell>
                <mxCell id="9" value="type: tvSeries, movie, game, manga" style="text;spacingLeft=4;spacingRight=4;overflow=hidden;rotatable=0;points=[[0,0.5],[1,0.5]];portConstraint=eastwest;fontSize=12;fontStyle=0;whiteSpace=wrap;shadow=0;comic=0;horizontal=1;align=left;fillColor=#fff2cc;strokeColor=#d6b656;fontColor=#000000;" vertex="1" parent="6">
                    <mxGeometry y="110" width="220" height="22" as="geometry"/>
                </mxCell>
                <mxCell id="10" value="imdbId?" style="text;spacingLeft=4;spacingRight=4;overflow=hidden;rotatable=0;points=[[0,0.5],[1,0.5]];portConstraint=eastwest;fontSize=12;fontStyle=0;whiteSpace=wrap;shadow=0;comic=0;horizontal=1;align=left;fillColor=#fff2cc;strokeColor=#d6b656;fontColor=#000000;" vertex="1" parent="6">
                    <mxGeometry y="132" width="220" height="22" as="geometry"/>
                </mxCell>
                <mxCell id="11" value="mangaUrl" style="text;spacingLeft=4;spacingRight=4;overflow=hidden;rotatable=0;points=[[0,0.5],[1,0.5]];portConstraint=eastwest;fontSize=12;fontStyle=0;whiteSpace=wrap;shadow=0;comic=0;horizontal=1;align=left;fillColor=#fff2cc;strokeColor=#d6b656;fontColor=#000000;" vertex="1" parent="6">
                    <mxGeometry y="154" width="220" height="22" as="geometry"/>
                </mxCell>
                <mxCell id="12" value="gameUrl" style="text;spacingLeft=4;spacingRight=4;overflow=hidden;rotatable=0;points=[[0,0.5],[1,0.5]];portConstraint=eastwest;fontSize=12;fontStyle=0;whiteSpace=wrap;shadow=0;comic=0;horizontal=1;align=left;fillColor=#fff2cc;strokeColor=#d6b656;fontColor=#000000;" vertex="1" parent="6">
                    <mxGeometry y="176" width="220" height="22" as="geometry"/>
                </mxCell>
                <mxCell id="13" value="async init" style="rounded=0;whiteSpace=wrap;html=1;fillColor=#d5e8d4;strokeColor=#82b366;fontColor=#0A0A0A;" vertex="1" parent="1">
                    <mxGeometry x="1150" y="-3205" width="80" height="60" as="geometry"/>
                </mxCell>
                <mxCell id="14" style="edgeStyle=orthogonalEdgeStyle;rounded=0;orthogonalLoop=1;jettySize=auto;html=1;fontColor=#0A0A0A;" edge="1" parent="1" source="13" target="18">
                    <mxGeometry relative="1" as="geometry">
                        <mxPoint x="1709.9999999999995" y="-3170" as="sourcePoint"/>
                    </mxGeometry>
                </mxCell>
                <mxCell id="15" style="edgeStyle=orthogonalEdgeStyle;rounded=0;orthogonalLoop=1;jettySize=auto;html=1;entryX=0.5;entryY=0;entryDx=0;entryDy=0;fontColor=#0A0A0A;" edge="1" parent="1" source="18" target="41">
                    <mxGeometry relative="1" as="geometry"/>
                </mxCell>
                <mxCell id="16" value="if fail" style="edgeLabel;html=1;align=center;verticalAlign=middle;resizable=0;points=[];" connectable="0" vertex="1" parent="15">
                    <mxGeometry x="0.4024" y="-3" relative="1" as="geometry">
                        <mxPoint as="offset"/>
                    </mxGeometry>
                </mxCell>
                <mxCell id="17" style="edgeStyle=orthogonalEdgeStyle;rounded=0;orthogonalLoop=1;jettySize=auto;html=1;fontColor=#0A0A0A;" edge="1" parent="1" source="18" target="69">
                    <mxGeometry relative="1" as="geometry"/>
                </mxCell>
                <mxCell id="18" value="puppeteer&lt;br&gt;(get title+&amp;nbsp; link where rating &amp;gt; 0)" style="rounded=0;whiteSpace=wrap;html=1;fillColor=#d5e8d4;strokeColor=#82b366;fontColor=#0A0A0A;" vertex="1" parent="1">
                    <mxGeometry x="1260" y="-3220" width="120" height="90" as="geometry"/>
                </mxCell>
                <mxCell id="19" style="edgeStyle=orthogonalEdgeStyle;rounded=0;orthogonalLoop=1;jettySize=auto;html=1;entryX=0;entryY=0.5;entryDx=0;entryDy=0;fontColor=#0A0A0A;" edge="1" parent="1" source="20" target="25">
                    <mxGeometry relative="1" as="geometry"/>
                </mxCell>
                <mxCell id="20" value="kafka&lt;br&gt;importRatingItem&lt;br&gt;{ratingsImportItemId: string }" style="shape=hexagon;perimeter=hexagonPerimeter2;whiteSpace=wrap;html=1;fixedSize=1;fillColor=#d5e8d4;strokeColor=#82b366;fontColor=#0A0A0A;" vertex="1" parent="1">
                    <mxGeometry x="1610" y="-3340" width="270" height="70" as="geometry"/>
                </mxCell>
                <mxCell id="21" style="edgeStyle=orthogonalEdgeStyle;rounded=0;orthogonalLoop=1;jettySize=auto;html=1;entryX=0.436;entryY=-0.011;entryDx=0;entryDy=0;entryPerimeter=0;fontColor=#0A0A0A;" edge="1" parent="1" source="25" target="61">
                    <mxGeometry relative="1" as="geometry"/>
                </mxCell>
                <mxCell id="22" style="edgeStyle=orthogonalEdgeStyle;rounded=0;orthogonalLoop=1;jettySize=auto;html=1;entryX=0.5;entryY=0;entryDx=0;entryDy=0;fontColor=#0A0A0A;" edge="1" parent="1" source="25" target="66">
                    <mxGeometry relative="1" as="geometry">
                        <Array as="points">
                            <mxPoint x="2270" y="-3120"/>
                            <mxPoint x="2370" y="-3120"/>
                        </Array>
                    </mxGeometry>
                </mxCell>
                <mxCell id="23" value="if error" style="edgeLabel;html=1;align=center;verticalAlign=middle;resizable=0;points=[];" connectable="0" vertex="1" parent="22">
                    <mxGeometry x="0.3962" y="-4" relative="1" as="geometry">
                        <mxPoint x="-14" as="offset"/>
                    </mxGeometry>
                </mxCell>
                <mxCell id="24" style="edgeStyle=orthogonalEdgeStyle;rounded=0;orthogonalLoop=1;jettySize=auto;html=1;entryX=0;entryY=0.5;entryDx=0;entryDy=0;fontColor=#0A0A0A;" edge="1" parent="1" source="25" target="68">
                    <mxGeometry relative="1" as="geometry"/>
                </mxCell>
                <mxCell id="25" value="subscriber&lt;br&gt;&lt;br&gt;processImportRatingItem" style="rounded=0;whiteSpace=wrap;html=1;fontColor=#0A0A0A;fillColor=#E0E0E0;" vertex="1" parent="1">
                    <mxGeometry x="1890" y="-3240" width="140" height="90" as="geometry"/>
                </mxCell>
                <mxCell id="26" style="edgeStyle=orthogonalEdgeStyle;rounded=0;orthogonalLoop=1;jettySize=auto;html=1;fontColor=#0A0A0A;" edge="1" parent="1" source="27" target="32">
                    <mxGeometry relative="1" as="geometry"/>
                </mxCell>
                <mxCell id="27" value="google cache -&amp;gt; get first imdb item id + image" style="rounded=0;whiteSpace=wrap;html=1;fillColor=#d5e8d4;strokeColor=#82b366;fontColor=#0A0A0A;" vertex="1" parent="1">
                    <mxGeometry x="2340" y="-3210" width="100" height="60" as="geometry"/>
                </mxCell>
                <mxCell id="28" style="edgeStyle=orthogonalEdgeStyle;rounded=0;orthogonalLoop=1;jettySize=auto;html=1;entryX=0;entryY=0.5;entryDx=0;entryDy=0;fontColor=#0A0A0A;" edge="1" parent="1" source="32" target="33">
                    <mxGeometry relative="1" as="geometry"/>
                </mxCell>
                <mxCell id="29" value="yes" style="edgeLabel;html=1;align=center;verticalAlign=middle;resizable=0;points=[];" connectable="0" vertex="1" parent="28">
                    <mxGeometry x="0.1142" y="1" relative="1" as="geometry">
                        <mxPoint as="offset"/>
                    </mxGeometry>
                </mxCell>
                <mxCell id="30" style="edgeStyle=orthogonalEdgeStyle;rounded=0;orthogonalLoop=1;jettySize=auto;html=1;entryX=0;entryY=0.5;entryDx=0;entryDy=0;fontColor=#0A0A0A;" edge="1" parent="1" source="32" target="35">
                    <mxGeometry relative="1" as="geometry"/>
                </mxCell>
                <mxCell id="31" value="no" style="edgeLabel;html=1;align=center;verticalAlign=middle;resizable=0;points=[];" connectable="0" vertex="1" parent="30">
                    <mxGeometry x="0.2268" y="-1" relative="1" as="geometry">
                        <mxPoint as="offset"/>
                    </mxGeometry>
                </mxCell>
                <mxCell id="32" value="imdb id exists in SyncroItem?" style="rhombus;whiteSpace=wrap;html=1;fillColor=#d5e8d4;strokeColor=#82b366;fontColor=#0A0A0A;" vertex="1" parent="1">
                    <mxGeometry x="2490" y="-3235" width="110" height="110" as="geometry"/>
                </mxCell>
                <mxCell id="33" value="update ratingsImportId + create / update rating" style="rounded=0;whiteSpace=wrap;html=1;fillColor=#d5e8d4;strokeColor=#82b366;fontColor=#0A0A0A;" vertex="1" parent="1">
                    <mxGeometry x="2710" y="-3290" width="120" height="80" as="geometry"/>
                </mxCell>
                <mxCell id="34" style="edgeStyle=orthogonalEdgeStyle;rounded=0;orthogonalLoop=1;jettySize=auto;html=1;fontColor=#0A0A0A;" edge="1" parent="1" source="35" target="33">
                    <mxGeometry relative="1" as="geometry"/>
                </mxCell>
                <mxCell id="35" value="create syncro item (without details; the details will be filled when user opens item screen?)&amp;nbsp;" style="rounded=0;whiteSpace=wrap;html=1;fillColor=#d5e8d4;strokeColor=#82b366;fontColor=#0A0A0A;" vertex="1" parent="1">
                    <mxGeometry x="2650" y="-3110" width="200" height="60" as="geometry"/>
                </mxCell>
                <mxCell id="36" style="edgeStyle=orthogonalEdgeStyle;rounded=0;orthogonalLoop=1;jettySize=auto;html=1;entryX=0.362;entryY=-0.006;entryDx=0;entryDy=0;entryPerimeter=0;fontColor=#0A0A0A;" edge="1" parent="1" source="37" target="39">
                    <mxGeometry relative="1" as="geometry"/>
                </mxCell>
                <mxCell id="37" value="onFinish" style="rounded=0;whiteSpace=wrap;html=1;fillColor=#d5e8d4;strokeColor=#82b366;fontColor=#0A0A0A;" vertex="1" parent="1">
                    <mxGeometry x="2270" y="-2960" width="80" height="60" as="geometry"/>
                </mxCell>
                <mxCell id="38" style="edgeStyle=orthogonalEdgeStyle;rounded=0;orthogonalLoop=1;jettySize=auto;html=1;entryX=0;entryY=0.5;entryDx=0;entryDy=0;fontColor=#0A0A0A;" edge="1" parent="1" source="39" target="40">
                    <mxGeometry relative="1" as="geometry"/>
                </mxCell>
                <mxCell id="39" value="generate notification" style="rounded=0;whiteSpace=wrap;html=1;fillColor=#d5e8d4;strokeColor=#82b366;fontColor=#0A0A0A;" vertex="1" parent="1">
                    <mxGeometry x="2370" y="-2860" width="110" height="70" as="geometry"/>
                </mxCell>
                <mxCell id="40" value="push notification" style="rounded=0;whiteSpace=wrap;html=1;fillColor=#d5e8d4;strokeColor=#82b366;fontColor=#0A0A0A;" vertex="1" parent="1">
                    <mxGeometry x="2570" y="-2875" width="110" height="60" as="geometry"/>
                </mxCell>
                <mxCell id="41" value="create ratingsImport error + push notification" style="rounded=0;whiteSpace=wrap;html=1;fillColor=#A89388;fontColor=#333333;" vertex="1" parent="1">
                    <mxGeometry x="1245" y="-3070" width="150" height="70" as="geometry"/>
                </mxCell>
                <object label="RatingsImport" id="42">
                    <mxCell style="swimlane;fontStyle=1;childLayout=stackLayout;horizontal=1;startSize=40;fillColor=#f5f5f5;horizontalStack=0;resizeParent=1;resizeParentMax=0;resizeLast=0;collapsible=1;marginBottom=0;swimlaneFillColor=#ffffff;align=center;fontSize=14;strokeColor=#666666;fontColor=#0A0A0A;" vertex="1" parent="1">
                        <mxGeometry x="1590" y="-2875" width="220" height="228" as="geometry">
                            <mxRectangle x="690" y="-100" width="210" height="40" as="alternateBounds"/>
                        </mxGeometry>
                    </mxCell>
                </object>
                <mxCell id="43" value="id" style="text;strokeColor=none;fillColor=none;spacingLeft=4;spacingRight=4;overflow=hidden;rotatable=0;points=[[0,0.5],[1,0.5]];portConstraint=eastwest;fontSize=12;fontStyle=1;whiteSpace=wrap;shadow=0;comic=0;horizontal=1;align=left;fontColor=#000000;" vertex="1" parent="42">
                    <mxGeometry y="40" width="220" height="22" as="geometry"/>
                </mxCell>
                <mxCell id="44" value="userId" style="text;spacingLeft=4;spacingRight=4;overflow=hidden;rotatable=0;points=[[0,0.5],[1,0.5]];portConstraint=eastwest;fontSize=12;fontStyle=0;whiteSpace=wrap;shadow=0;comic=0;horizontal=1;align=left;fontColor=#000000;" vertex="1" parent="42">
                    <mxGeometry y="62" width="220" height="28" as="geometry"/>
                </mxCell>
                <mxCell id="45" value="importFrom: &quot;MyAnimeList&quot;" style="text;spacingLeft=4;spacingRight=4;overflow=hidden;rotatable=0;points=[[0,0.5],[1,0.5]];portConstraint=eastwest;fontSize=12;fontStyle=0;whiteSpace=wrap;shadow=0;comic=0;horizontal=1;align=left;fillColor=#fff2cc;strokeColor=#d6b656;fontColor=#000000;" vertex="1" parent="42">
                    <mxGeometry y="90" width="220" height="28" as="geometry"/>
                </mxCell>
                <mxCell id="46" value="status: &quot;started&quot;, &quot;finishedSuccessfully&quot;, &quot;errorWhileInitialScraping&quot;&amp;nbsp;" style="text;spacingLeft=4;spacingRight=4;overflow=hidden;rotatable=0;points=[[0,0.5],[1,0.5]];portConstraint=eastwest;fontSize=12;fontStyle=0;whiteSpace=wrap;shadow=0;comic=0;horizontal=1;align=left;fillColor=#fff2cc;strokeColor=#d6b656;fontColor=#000000;" vertex="1" parent="42">
                    <mxGeometry y="118" width="220" height="60" as="geometry"/>
                </mxCell>
                <mxCell id="47" value="remainingItemsQty" style="text;spacingLeft=4;spacingRight=4;overflow=hidden;rotatable=0;points=[[0,0.5],[1,0.5]];portConstraint=eastwest;fontSize=12;fontStyle=0;whiteSpace=wrap;shadow=0;comic=0;horizontal=1;align=left;fillColor=#fff2cc;strokeColor=#d6b656;fontColor=#000000;" vertex="1" parent="42">
                    <mxGeometry y="178" width="220" height="28" as="geometry"/>
                </mxCell>
                <mxCell id="48" value="createdAt, updatedAt" style="text;spacingLeft=4;spacingRight=4;overflow=hidden;rotatable=0;points=[[0,0.5],[1,0.5]];portConstraint=eastwest;fontSize=12;fontStyle=0;whiteSpace=wrap;shadow=0;comic=0;horizontal=1;align=left;fontColor=#000000;" vertex="1" parent="42">
                    <mxGeometry y="206" width="220" height="22" as="geometry"/>
                </mxCell>
                <object label="RatingsImportItem" id="49">
                    <mxCell style="swimlane;fontStyle=1;childLayout=stackLayout;horizontal=1;startSize=40;fillColor=#f5f5f5;horizontalStack=0;resizeParent=1;resizeParentMax=0;resizeLast=0;collapsible=1;marginBottom=0;swimlaneFillColor=#ffffff;align=center;fontSize=14;strokeColor=#666666;fontColor=#0A0A0A;" vertex="1" parent="1">
                        <mxGeometry x="1300" y="-2895" width="220" height="322" as="geometry">
                            <mxRectangle x="690" y="-100" width="210" height="40" as="alternateBounds"/>
                        </mxGeometry>
                    </mxCell>
                </object>
                <mxCell id="50" value="id" style="text;strokeColor=none;fillColor=none;spacingLeft=4;spacingRight=4;overflow=hidden;rotatable=0;points=[[0,0.5],[1,0.5]];portConstraint=eastwest;fontSize=12;fontStyle=1;whiteSpace=wrap;shadow=0;comic=0;horizontal=1;align=left;fontColor=#1F1F1F;" vertex="1" parent="49">
                    <mxGeometry y="40" width="220" height="22" as="geometry"/>
                </mxCell>
                <mxCell id="51" value="ratingsImportId" style="text;spacingLeft=4;spacingRight=4;overflow=hidden;rotatable=0;points=[[0,0.5],[1,0.5]];portConstraint=eastwest;fontSize=12;fontStyle=0;whiteSpace=wrap;shadow=0;comic=0;horizontal=1;align=left;fontColor=#1F1F1F;" vertex="1" parent="49">
                    <mxGeometry y="62" width="220" height="28" as="geometry"/>
                </mxCell>
                <mxCell id="52" value="title" style="text;spacingLeft=4;spacingRight=4;overflow=hidden;rotatable=0;points=[[0,0.5],[1,0.5]];portConstraint=eastwest;fontSize=12;fontStyle=0;whiteSpace=wrap;shadow=0;comic=0;horizontal=1;align=left;fontColor=#1F1F1F;" vertex="1" parent="49">
                    <mxGeometry y="90" width="220" height="28" as="geometry"/>
                </mxCell>
                <mxCell id="53" value="link" style="text;spacingLeft=4;spacingRight=4;overflow=hidden;rotatable=0;points=[[0,0.5],[1,0.5]];portConstraint=eastwest;fontSize=12;fontStyle=0;whiteSpace=wrap;shadow=0;comic=0;horizontal=1;align=left;fontColor=#1F1F1F;" vertex="1" parent="49">
                    <mxGeometry y="118" width="220" height="28" as="geometry"/>
                </mxCell>
                <mxCell id="54" value="rating" style="text;spacingLeft=4;spacingRight=4;overflow=hidden;rotatable=0;points=[[0,0.5],[1,0.5]];portConstraint=eastwest;fontSize=12;fontStyle=0;whiteSpace=wrap;shadow=0;comic=0;horizontal=1;align=left;fillColor=#fff2cc;strokeColor=#d6b656;fontColor=#1F1F1F;" vertex="1" parent="49">
                    <mxGeometry y="146" width="220" height="28" as="geometry"/>
                </mxCell>
                <mxCell id="55" value="errorQty" style="text;spacingLeft=4;spacingRight=4;overflow=hidden;rotatable=0;points=[[0,0.5],[1,0.5]];portConstraint=eastwest;fontSize=12;fontStyle=0;whiteSpace=wrap;shadow=0;comic=0;horizontal=1;align=left;fillColor=#fff2cc;strokeColor=#d6b656;fontColor=#1F1F1F;" vertex="1" parent="49">
                    <mxGeometry y="174" width="220" height="28" as="geometry"/>
                </mxCell>
                <mxCell id="56" value="syncroItemId" style="text;spacingLeft=4;spacingRight=4;overflow=hidden;rotatable=0;points=[[0,0.5],[1,0.5]];portConstraint=eastwest;fontSize=12;fontStyle=0;whiteSpace=wrap;shadow=0;comic=0;horizontal=1;align=left;fillColor=#fff2cc;strokeColor=#d6b656;fontColor=#1F1F1F;" vertex="1" parent="49">
                    <mxGeometry y="202" width="220" height="28" as="geometry"/>
                </mxCell>
                <mxCell id="57" value="status: &quot;waiting&quot;, &quot;importedSuccessfully&quot;, &quot;alreadyRated&quot;, &quot;errorOrNotFound&quot;, &quot;isMovie&quot;" style="text;spacingLeft=4;spacingRight=4;overflow=hidden;rotatable=0;points=[[0,0.5],[1,0.5]];portConstraint=eastwest;fontSize=12;fontStyle=0;whiteSpace=wrap;shadow=0;comic=0;horizontal=1;align=left;fillColor=#fff2cc;strokeColor=#d6b656;fontColor=#1F1F1F;" vertex="1" parent="49">
                    <mxGeometry y="230" width="220" height="70" as="geometry"/>
                </mxCell>
                <mxCell id="58" value="createdAt, updatedAt" style="text;spacingLeft=4;spacingRight=4;overflow=hidden;rotatable=0;points=[[0,0.5],[1,0.5]];portConstraint=eastwest;fontSize=12;fontStyle=0;whiteSpace=wrap;shadow=0;comic=0;horizontal=1;align=left;fontColor=#171717;" vertex="1" parent="49">
                    <mxGeometry y="300" width="220" height="22" as="geometry"/>
                </mxCell>
                <mxCell id="59" style="edgeStyle=orthogonalEdgeStyle;rounded=0;orthogonalLoop=1;jettySize=auto;html=1;fontColor=#0A0A0A;" edge="1" parent="1" source="51" target="43">
                    <mxGeometry relative="1" as="geometry"/>
                </mxCell>
                <mxCell id="60" style="edgeStyle=orthogonalEdgeStyle;rounded=0;orthogonalLoop=1;jettySize=auto;html=1;fontColor=#0A0A0A;" edge="1" parent="1" source="61" target="37">
                    <mxGeometry relative="1" as="geometry"/>
                </mxCell>
                <mxCell id="61" value="&lt;span style=&quot;text-align: left;&quot;&gt;decrement remainingItemsQty&lt;br&gt;from RatingsImport&lt;br&gt;&lt;/span&gt;" style="rounded=0;whiteSpace=wrap;html=1;fillColor=#d5e8d4;strokeColor=#82b366;fontColor=#0A0A0A;" vertex="1" parent="1">
                    <mxGeometry x="1920" y="-2950" width="140" height="90" as="geometry"/>
                </mxCell>
                <mxCell id="62" style="edgeStyle=orthogonalEdgeStyle;rounded=0;orthogonalLoop=1;jettySize=auto;html=1;entryX=0;entryY=0.5;entryDx=0;entryDy=0;exitX=1;exitY=0.5;exitDx=0;exitDy=0;fontColor=#0A0A0A;" edge="1" parent="1" source="69" target="20">
                    <mxGeometry relative="1" as="geometry">
                        <mxPoint x="1710" y="-3185" as="sourcePoint"/>
                    </mxGeometry>
                </mxCell>
                <mxCell id="63" value="for each item produce" style="edgeLabel;html=1;align=center;verticalAlign=middle;resizable=0;points=[];" connectable="0" vertex="1" parent="62">
                    <mxGeometry x="-0.2688" y="-1" relative="1" as="geometry">
                        <mxPoint y="-50" as="offset"/>
                    </mxGeometry>
                </mxCell>
                <mxCell id="64" style="edgeStyle=orthogonalEdgeStyle;rounded=0;orthogonalLoop=1;jettySize=auto;html=1;entryX=1;entryY=0.25;entryDx=0;entryDy=0;exitX=0.5;exitY=1;exitDx=0;exitDy=0;fontColor=#0A0A0A;" edge="1" parent="1" source="66" target="61">
                    <mxGeometry relative="1" as="geometry">
                        <Array as="points">
                            <mxPoint x="2280" y="-3010"/>
                            <mxPoint x="2150" y="-3010"/>
                            <mxPoint x="2150" y="-2927"/>
                        </Array>
                    </mxGeometry>
                </mxCell>
                <mxCell id="65" value="if error 3 times;&lt;br&gt;status error" style="edgeLabel;html=1;align=center;verticalAlign=middle;resizable=0;points=[];" connectable="0" vertex="1" parent="64">
                    <mxGeometry x="-0.42" y="2" relative="1" as="geometry">
                        <mxPoint as="offset"/>
                    </mxGeometry>
                </mxCell>
                <mxCell id="66" value="increase error qty" style="rounded=0;whiteSpace=wrap;html=1;fontColor=#0A0A0A;fillColor=#EBEBEB;" vertex="1" parent="1">
                    <mxGeometry x="2230" y="-3100" width="100" height="60" as="geometry"/>
                </mxCell>
                <mxCell id="67" style="edgeStyle=orthogonalEdgeStyle;rounded=0;orthogonalLoop=1;jettySize=auto;html=1;entryX=0;entryY=0.5;entryDx=0;entryDy=0;fontColor=#0A0A0A;" edge="1" parent="1" source="68" target="74">
                    <mxGeometry relative="1" as="geometry"/>
                </mxCell>
                <mxCell id="68" value="go to link -&amp;gt; check if !== movie" style="rounded=0;whiteSpace=wrap;html=1;fillColor=#d5e8d4;strokeColor=#82b366;fontColor=#0A0A0A;" vertex="1" parent="1">
                    <mxGeometry x="2070" y="-3240" width="100" height="60" as="geometry"/>
                </mxCell>
                <mxCell id="69" value="for each item, create a ratingsImportItem" style="rounded=0;whiteSpace=wrap;html=1;fillColor=#d5e8d4;strokeColor=#82b366;fontColor=#0A0A0A;" vertex="1" parent="1">
                    <mxGeometry x="1440" y="-3210" width="120" height="90" as="geometry"/>
                </mxCell>
                <mxCell id="70" style="edgeStyle=orthogonalEdgeStyle;rounded=0;orthogonalLoop=1;jettySize=auto;html=1;entryX=0;entryY=0.5;entryDx=0;entryDy=0;fontColor=#0A0A0A;" edge="1" parent="1" source="74" target="27">
                    <mxGeometry relative="1" as="geometry"/>
                </mxCell>
                <mxCell id="71" value="no" style="edgeLabel;html=1;align=center;verticalAlign=middle;resizable=0;points=[];" connectable="0" vertex="1" parent="70">
                    <mxGeometry x="0.1636" y="-1" relative="1" as="geometry">
                        <mxPoint as="offset"/>
                    </mxGeometry>
                </mxCell>
                <mxCell id="72" style="edgeStyle=orthogonalEdgeStyle;rounded=0;orthogonalLoop=1;jettySize=auto;html=1;entryX=0.003;entryY=0.402;entryDx=0;entryDy=0;entryPerimeter=0;fontColor=#0A0A0A;" edge="1" parent="1" source="74" target="75">
                    <mxGeometry relative="1" as="geometry"/>
                </mxCell>
                <mxCell id="73" value="yes" style="edgeLabel;html=1;align=center;verticalAlign=middle;resizable=0;points=[];" connectable="0" vertex="1" parent="72">
                    <mxGeometry x="-0.1678" y="-1" relative="1" as="geometry">
                        <mxPoint as="offset"/>
                    </mxGeometry>
                </mxCell>
                <mxCell id="74" value="is movie?" style="rhombus;whiteSpace=wrap;html=1;fillColor=#d5e8d4;strokeColor=#82b366;fontColor=#0A0A0A;" vertex="1" parent="1">
                    <mxGeometry x="2210" y="-3330" width="80" height="80" as="geometry"/>
                </mxCell>
                <mxCell id="75" value="update&amp;nbsp;RatingsImportItem isMovie" style="rounded=0;whiteSpace=wrap;html=1;fillColor=#d5e8d4;strokeColor=#82b366;fontColor=#0A0A0A;" vertex="1" parent="1">
                    <mxGeometry x="2340" y="-3410" width="160" height="60" as="geometry"/>
                </mxCell>
            </root>
        </mxGraphModel>
    </diagram>
</mxfile>